<svg width="200" height="200" viewBox="0 0 200 200" fill="none" xmlns="http://www.w3.org/2000/svg">
<circle opacity="0.8" cx="100" cy="100" r="97.5" stroke="#d7d7d7" stroke-width="5"/>
<path d="M118.49 54C109.605 54 102.404 64.2798 102.404 75.882C102.404 82.9433 105.275 89.1701 108.785 93.047C111.865 96.4528 113.758 99.0753 114.136 104.766V142.286C114.136 144.888 115.962 147 118.212 147H118.765C121.015 147 122.841 144.888 122.841 142.286V104.766C123.219 99.0751 125.112 96.4526 128.192 93.0468C131.702 89.1699 134.573 82.9431 134.573 75.8818C134.573 64.2798 127.37 54 118.49 54Z" fill="#d7d7d7"/>
<path d="M89.6975 58.4587V78.3256C89.6975 79.5942 88.8091 80.6245 87.7119 80.6245H87.1792C86.0846 80.6245 85.1936 79.5942 85.1936 78.3256V58.3679C85.1936 55.0955 83.289 54.1135 81.4605 54.1135C79.6344 54.1135 77.7298 55.0955 77.7298 58.3679V78.3256C77.7298 79.5942 76.8389 80.6245 75.7418 80.6245H75.2117C74.1146 80.6245 73.226 79.5942 73.226 78.3256V58.4587C73.226 52.5979 66.0004 52.7966 66.0004 58.5239C66.0004 65.3809 66.0004 77.4941 66.0004 77.4941C65.966 88.0292 68.1431 90.7624 71.7363 94.0461C74.6325 96.6913 77.1089 98.2011 77.1089 104.768V142.286C77.1089 144.888 78.9324 147 81.1856 147H81.7379C83.9885 147 85.8145 144.888 85.8145 142.286V104.768C85.8145 98.2011 88.2885 96.6911 91.1848 94.0461C94.7805 90.7624 96.9574 88.0292 96.923 77.4941C96.923 77.4941 96.923 65.3809 96.923 58.5239C96.9232 52.7966 89.6975 52.5979 89.6975 58.4587Z" fill="#d7d7d7"/>
</svg>
